HIERARCHY
ROOT Hips
{
	OFFSET 0.000000 0.000000 0.000000
	CHANNELS 6 Xposition Yposition Zposition Xrotation Yrotation Zrotation
	JOINT LeftUpLeg_virtual
	{
		OFFSET 0.000000 0.000000 0.000000
		CHANNELS 3 Xrotation Yrotation Zrotation
		JOINT LeftUpLeg
		{
			OFFSET 15.427100 -6.655098 0.678600
			CHANNELS 3 Xrotation Yrotation Zrotation
			JOINT LeftLeg
			{
				OFFSET 4.081073 -39.591068 13.024000
				CHANNELS 3 Xrotation Yrotation Zrotation
				JOINT LeftFoot
				{
					OFFSET -4.081074 -37.707932 -15.979700
					CHANNELS 3 Xrotation Yrotation Zrotation
					JOINT LeftToeBase
					{
						OFFSET 5.346399 -15.068900 20.645000
						CHANNELS 3 Xrotation Yrotation Zrotation
						JOINT LeftToe_End
						{
							OFFSET 2.754700 0.931300 11.300900
							CHANNELS 3 Xrotation Yrotation Zrotation
							End Site
							{
								OFFSET 0 0 0
							}
						}
					}
				}
			}
		}
	}
	JOINT RightUpLeg_virtual
	{
		OFFSET 0.000000 0.000000 0.000000
		CHANNELS 3 Xrotation Yrotation Zrotation
		JOINT RightUpLeg
		{
			OFFSET -15.569500 -6.655098 0.678600
			CHANNELS 3 Xrotation Yrotation Zrotation
			JOINT RightLeg
			{
				OFFSET -4.081825 -39.591045 13.023800
				CHANNELS 3 Xrotation Yrotation Zrotation
				JOINT RightFoot
				{
					OFFSET 4.081824 -37.707954 -15.979600
					CHANNELS 3 Xrotation Yrotation Zrotation
					JOINT RightToeBase
					{
						OFFSET -5.346400 -15.068900 20.645000
						CHANNELS 3 Xrotation Yrotation Zrotation
						JOINT RightToe_End
						{
							OFFSET -2.754700 0.931300 11.300900
							CHANNELS 3 Xrotation Yrotation Zrotation
							End Site
							{
								OFFSET 0 0 0
							}
						}
					}
				}
			}
		}
	}
	JOINT Spine_virtual
	{
		OFFSET 0.000000 0.000000 0.000000
		CHANNELS 3 Xrotation Yrotation Zrotation
		JOINT Spine
		{
			OFFSET -0.279200 12.230698 -2.892100
			CHANNELS 3 Xrotation Yrotation Zrotation
			JOINT Spine1
			{
				OFFSET -0.232667 10.192268 -1.242267
				CHANNELS 3 Xrotation Yrotation Zrotation
				JOINT Spine1_split
				{
					OFFSET -0.232667 10.192268 -1.242267
					CHANNELS 3 Xrotation Yrotation Zrotation
					JOINT Spine2
					{
						OFFSET -0.232667 10.192268 -1.242267
						CHANNELS 3 Xrotation Yrotation Zrotation
						JOINT Neck_virtual
						{
							OFFSET 0.000000 0.000000 0.000000
							CHANNELS 3 Xrotation Yrotation Zrotation
							JOINT Neck
							{
								OFFSET -0.418800 17.814194 8.416900
								CHANNELS 3 Xrotation Yrotation Zrotation
								JOINT Head
								{
									OFFSET 0.000000 7.031097 3.806800
									CHANNELS 3 Xrotation Yrotation Zrotation
									JOINT HeadTop_End
									{
										OFFSET 0.000000 24.646606 12.978600
										CHANNELS 3 Xrotation Yrotation Zrotation
										End Site
										{
											OFFSET 0 0 0
										}
									}
								}
							}
						}
						JOINT LeftShoulder_virtual
						{
							OFFSET 0.000000 0.000000 0.000000
							CHANNELS 3 Xrotation Yrotation Zrotation
							JOINT LeftShoulder
							{
								OFFSET 8.476499 7.247704 -3.868750
								CHANNELS 3 Xrotation Yrotation Zrotation
								JOINT LeftShoulder_split
								{
									OFFSET 8.476499 7.247704 -3.868750
									CHANNELS 3 Xrotation Yrotation Zrotation
									JOINT LeftArm
									{
										OFFSET 9.308998 -2.777710 0.208600
										CHANNELS 3 Xrotation Yrotation Zrotation
										JOINT LeftForeArm
										{
											OFFSET 29.972298 0.000000 0.000000
											CHANNELS 3 Xrotation Yrotation Zrotation
											JOINT LeftHand
											{
												OFFSET 26.026505 0.000000 0.000000
												CHANNELS 3 Xrotation Yrotation Zrotation
												End Site
												{
													OFFSET 0 0 0
												}
											}
										}
									}
								}
							}
						}
						JOINT RightShoulder_virtual
						{
							OFFSET 0.000000 0.000000 0.000000
							CHANNELS 3 Xrotation Yrotation Zrotation
							JOINT RightShoulder
							{
								OFFSET -7.570500 7.247704 -3.868750
								CHANNELS 3 Xrotation Yrotation Zrotation
								JOINT RightShoulder_split
								{
									OFFSET -7.570500 7.247704 -3.868750
									CHANNELS 3 Xrotation Yrotation Zrotation
									JOINT RightArm
									{
										OFFSET -9.308998 -2.777710 0.208500
										CHANNELS 3 Xrotation Yrotation Zrotation
										JOINT RightForeArm
										{
											OFFSET -29.972300 0.000000 0.000000
											CHANNELS 3 Xrotation Yrotation Zrotation
											JOINT RightHand
											{
												OFFSET -26.026505 0.000000 0.000000
												CHANNELS 3 Xrotation Yrotation Zrotation
												End Site
												{
													OFFSET 0 0 0
												}
											}
										}
									}
								}
							}
						}
					}
				}
			}
		}
	}
}
MOTION
Frames: 4
Frame Time: 0.03333333
7.132494 79.413651 -9.246277 0.000000 0.000000 0.000000 20.258317 8.919660 -22.829265 -67.067130 -10.239505 18.580309 60.869020 10.759907 1.004040 -5.410601 -19.464980 -12.116063 -10.293355 -3.452098 2.593212 0.000000 0.000000 0.000000 20.515766 9.933516 -23.972306 -17.969391 -24.188946 8.992516 25.286981 8.266025 -1.002178 -13.143944 -19.308827 14.969973 3.488183 1.165206 -8.685426 0.000000 0.000000 0.000000 21.308855 14.363876 -25.311645 16.149526 1.034297 -14.122021 7.803610 0.332425 -7.971183 0.348547 -0.771532 0.074725 0.000000 0.000000 0.000000 7.102873 2.487134 -7.579434 -3.663965 21.679671 1.200965 18.629437 -3.795541 54.334032 0.000000 0.000000 0.000000 5.387476 -0.417284 -7.005515 -2.534293 -9.764248 1.808152 -3.133259 2.440437 -0.869486 -43.408581 -38.584476 -79.953143 -24.236663 -50.491296 -15.843460 0.000000 0.000000 0.000000 5.542961 -0.010555 -7.141866 -4.529820 5.347012 -4.106917 6.070911 -0.089298 0.386715 19.714492 60.670856 1.397334 -52.599908 72.015711 37.713859 0.000000 0.000000 0.000000 
7.260643 79.543106 -9.223778 0.000000 0.000000 0.000000 20.075912 8.612342 -22.361925 -66.753317 -9.047976 19.063907 60.333342 10.731782 1.168551 -5.627375 -19.097556 -12.063166 -9.628920 -3.340575 2.653825 0.000000 0.000000 0.000000 20.434686 9.846592 -23.557215 -18.300114 -24.209124 8.641855 25.511498 8.201742 -0.885407 -13.268824 -19.066326 14.709250 3.923878 1.108115 -8.549123 0.000000 0.000000 0.000000 20.875671 14.106704 -24.775610 15.934777 0.795165 -13.717542 8.161361 0.505278 -8.037303 0.348281 -0.712692 0.053950 0.000000 0.000000 0.000000 7.467614 2.693971 -7.650308 -2.769352 21.639042 2.166551 20.811588 -5.092250 57.151290 0.000000 0.000000 0.000000 5.550075 -0.243250 -7.078114 -2.566732 -9.432710 1.361434 -2.861386 2.044445 -0.636065 -42.444244 -38.760173 -79.288613 -23.519804 -51.264572 -15.243457 0.000000 0.000000 0.000000 5.621558 0.140283 -7.142725 -4.368795 6.081043 -4.288454 6.051719 0.326672 0.609996 20.241720 60.595676 1.220466 -49.822422 70.586071 35.146402 0.000000 0.000000 0.000000 
7.295329 79.624916 -9.177490 0.000000 0.000000 0.000000 19.851031 8.211835 -21.855437 -66.525626 -7.475764 19.813976 59.904857 10.856041 1.319285 -6.192575 -18.554147 -11.669692 -8.381254 -3.213411 2.713814 0.000000 0.000000 0.000000 20.288054 9.655820 -23.116852 -18.785894 -24.167308 8.217725 25.919899 8.057962 -0.694256 -13.392078 -18.857324 14.397269 4.396937 1.023314 -8.495009 0.000000 0.000000 0.000000 20.316227 13.703957 -24.192416 15.638235 0.577205 -13.316366 8.503475 0.583429 -8.121880 0.319901 -0.677535 0.083192 0.000000 0.000000 0.000000 7.855563 2.824529 -7.706197 -2.056506 21.630096 3.277725 22.905944 -6.949065 60.316547 0.000000 0.000000 0.000000 5.766752 -0.145369 -7.183427 -2.628595 -8.984282 0.837074 -2.394792 1.878433 -0.557800 -41.103908 -38.906233 -78.362911 -22.194088 -51.800250 -14.042260 0.000000 0.000000 0.000000 5.727878 0.218477 -7.144506 -4.291722 6.847448 -4.431198 5.884456 0.832524 0.808882 20.826879 60.441860 1.297096 -46.734658 68.705966 32.359367 0.000000 0.000000 0.000000 
7.272261 79.666237 -9.162201 0.000000 0.000000 0.000000 19.617888 7.658864 -21.255585 -66.410756 -5.778670 20.611805 59.640379 10.921069 1.571755 -6.868215 -17.957932 -11.365269 -7.187645 -3.083834 2.856871 0.000000 0.000000 0.000000 20.051989 9.163061 -22.547604 -19.569433 -24.093272 7.625855 26.502751 7.889230 -0.475428 -13.388981 -18.643614 14.158377 4.927806 0.909331 -8.518221 0.000000 0.000000 0.000000 19.726988 13.079336 -23.493057 15.346416 0.396658 -12.948251 8.867648 0.544573 -8.222725 0.288037 -0.731056 0.123688 0.000000 0.000000 0.000000 8.250608 2.870774 -7.744193 -1.527796 21.667573 4.490815 24.943627 -9.182720 63.461391 0.000000 0.000000 0.000000 6.085033 -0.129026 -7.317605 -2.709626 -8.493455 0.332692 -1.829255 1.981227 -0.557025 -39.627289 -39.077712 -77.141926 -20.527271 -52.406334 -12.464297 0.000000 0.000000 0.000000 5.900651 0.214819 -7.157484 -4.279490 7.628401 -4.507690 5.387514 1.291921 1.121433 21.958824 60.189758 0.904182 -44.059047 66.728045 30.070656 0.000000 0.000000 0.000000 
